<svg width="24" height="24" version="1.1" viewBox="0 0 6.35 6.35" xmlns="http://www.w3.org/2000/svg">
 <path d="m5.2922.52865a.52917.52917 0 00-.37414.15503l-1.743 1.743-1.7436-1.743a.52917.52917 0 00-.37259-.15451.52917.52917 0 00-.37517.15451.52917.52917 0 000 .74776l1.743 1.7436-1.743 1.743a.52917.52917 0 000 .74776.52917.52917 0 00.74776 0l1.7436-1.7436 1.743 1.7436a.52917.52917 0 00.74776 0 .52917.52917 0 000-.74776l-1.7436-1.743 1.7436-1.7436a.52917.52917 0 000-.74776.52917.52917 0 00-.37362-.15503z" color="#000000" stroke-linecap="round"/>
</svg>
