<svg width="24" height="24" version="1.1" viewBox="0 0 6.35 6.35" xmlns="http://www.w3.org/2000/svg">
 <g stroke-width=".26458" class="primary">
  <g transform="scale(1.1693 .85519)" aria-label="z">
   <path d="m2.0364 6.1877h-1.1313v-.16739l.83119-1.1833h-.78212v-.19625h1.0621v.19048l-.81964 1.1602h.83985z"/>
  </g>
  <g transform="scale(1.1693 .85519)" aria-label="z">
   <path d="m3.0663 4.9758h-.90507v-.13391l.66495-.94663h-.6257v-.157h.84966v.15238l-.65572.92816h.67188z"/>
  </g>
  <g transform="scale(1.1693 .85519)" aria-label="z">
   <path d="m3.5671 3.1918h-.6788v-.10044l.49871-.70997h-.46927v-.11775h.63724v.11429l-.49179.69612h.50391z"/>
  </g>
  <g transform="scale(1.1693 .85519)" aria-label="z">
   <path d="m4.1171 1.9267h-.45254v-.066957l.33248-.47332h-.31285v-.078501h.42483v.076192l-.32786.46408h.33594z"/>
  </g>
  <g transform="scale(1.1693 .85519)" aria-label="z">
   <path d="m4.6434 1.022h-.22627v-.033478l.16624-.23666h-.15642v-.039251h.21241v.038096l-.16393.23204h.16797z"/>
  </g>
 </g>
</svg>
