<svg width="1920" height="1080" version="1.1" viewBox="0 0 508 285.75" xmlns="http://www.w3.org/2000/svg">
 <path d="m-.56847.90626v285.75c.35412.63266 1.002.55613 1.6293.52929h506.9c.63266-.35412.55613-1.002.52929-1.6293v-284.65c-.35412-.63266-1.002-.55613-1.6293-.5293h-506.9c-.17643.17643-.35286.35286-.5293.5293z" fill="#161320" style="paint-order:stroke fill markers"/>
 <g transform="translate(-7.0104 1.3693)" stroke-width="2">
  <g fill="#ddb6f2">
   <g stroke-width=".52916">
    <path d="m251.51 283.67c-1.2612.0214-2.8511 1.626-4.9574 2.146 3.6016-.004 6.1566-.0449 9.5146-.0106-1.9168-.4854-3.2959-2.1568-4.5572-2.1354z" color="#000000" style="-inkscape-stroke:none"/>
    <path d="m377.13 285.92c-.75382-2.7728.0637-11.011-4.09-14.453-4.1536-3.4418-14.092-2.1728-16.386-2.0621-5.5219.26648-5.8667 11.538-4.557 14.666-1.7209 0-2.733-3.1711-1.4537-12.505.30824-2.2489-.53675-2.4718-3.4998-2.4464-2.942.0251-8.1361.7698-11.287 2.0626-2.9827 1.2238-3.4338 12.932-3.4338 12.932-1.3761-.17703-.92167-6.9798-.45725-8.6551.99119-3.9612.82766-3.741-2.4134-2.6922-6.6309 2.1456-6.6434 2.35-7.2058 6.9971-.30393 2.5114-.96834 5.3238-1.2668 6.0372" color="#000000" style="-inkscape-stroke:none"/>
    <path d="m122.59 285.95c.75381-2.7728-.0637-11.011 4.09-14.453 4.1536-3.4418 14.092-2.1728 16.386-2.0621 5.5219.26649 5.8667 11.538 4.557 14.666 1.7209 0 2.733-3.1711 1.4537-12.505-.30823-2.2489.53676-2.4718 3.4998-2.4464 2.942.0251 8.1361.76979 11.287 2.0626 2.9827 1.2238 3.4338 12.932 3.4338 12.932 1.3761-.17703.92166-6.9798.45725-8.6551-.9912-3.9612-.82766-3.741 2.4134-2.6922 6.6309 2.1456 6.6434 2.35 7.2058 6.997.30392 2.5114.96834 5.3239 1.2668 6.0372" color="#000000" style="-inkscape-stroke:none"/>
   </g>
   <path transform="scale(.26458)" d="m895.03 954.01c-3.1799-.0103-4.3563-8.5431-1.3083-9.4496l56.895-16.922 53.756 16.943c3.1175.98258.4318 9.355-2.8367 9.3869-50.92.49568-42.742-16.867-50.92-17.216-8.1776-.34834 0 17.437-55.587 17.257z" color="#000000" style="-inkscape-stroke:none"/>
  </g>
  <g fill="#575268">
   <path transform="scale(.26458)" d="m824.46 797.54c-40.296-1.1566-119.92 18.859-114.13 68.678 7.0408 40.064 53.157 69.121 89.662 74.82s58.232-1.8988 71.178-24.574c5.3146-9.3086 8.0465-30.01 4.7071-30.461-9.5217-2.5513-6.0485 43.249-42.805 38.147-40.914-5.6787-43.351-64.11-27.905-92.223 10.588-19.272 12.212-20.074 45.281-17.839 14.946 1.0101 16.038 35.421 25.05 29.915 3.0659-6.7974 1.5792-29.85.36328-31.5-3.8868-13.859-43.833-14.876-51.404-14.963z" color="#000000" style="-inkscape-stroke:none"/>
   <path transform="scale(.26458)" d="m1073.4 796.58c-54.143-7.1676-59.478 42.356-52.278 48.768 5.3042.56145 10.994-22.339 27.072-26.918 18.794-5.3526 46.874 3.7922 53.921 13.083 10.262 13.53.7298 81.558-19.476 90.988-60.162 9.1566-43.898-27.9-60.89-36.501-2.3884 0 .6335 14.795 2.1797 22 10.63 37.651 68.034 34.261 91.451 31.042 37.398-5.6389 85.096-54.654 71.762-90.457-28.335-38.63-70.57-52.626-113.74-52.006z" color="#000000" style="-inkscape-stroke:none"/>
   <path d="m137.74 56.933c-16.658 28.692-6.3503 78.654 4.0265 98.533 3.7393 6.869-6.6271.75967-8.1273-2.6633-2.703 16.436 14.724 37.412 32.196 33.696-11.143 10.272-27.925-4.2989-37.756-5.509-1.6513 16.334 10.684 38.325 24.219 43.103-4.647 1.3106-24.822 17.361-23.901 21.084 3.6308-3.504 22.99-6.9906 31.107-4.7553-5.5825 15.168-18.539 17.526-31.178 14.966 12.13 16.247 41.562 11.091 48.309 18.877 2.7424 3.1645 2.0852 5.102 2.0077 11.568 7.268-.11742 13.281.0959 16.322.0233-.72089-2.2548 6.4564-6.5216 7.8271-9.4622-9.7892-7.6327-28.027-21.427-26.74-36.437 2.8668-33.437 42.942-67.794 72.513-69.843 33.417.74628 83.094 38.323 81.921 70.25-1.1319 15.04-14.568 25.93-27.226 36.139 2.1619 9.3317 1.2407 6.608 2.1619 9.3317 3.0514.4862 8.8058.0376 15.653-.0383.0708-8.0841-.38492-10.929 2.8066-13.464 7.507-5.9631 39.527-.76201 48.77-17.874-9.2039 2.0188-24.45-.032-29.976-9.0745 3.9768-5.2018 21.103 1.1392 30.061-.1938 3.8242-4.1368-24.872-20.992-24.562-21.099 19.614-3.827 29.125-49.167 20.969-42.386-8.0615 7.5569-33.488 11.398-34.411 5.1836 17.212.376 35.685-33.581 35.685-33.581-2.3226-1.1275-11.197 3.6049-14.73 6.2862 13.72-28.025 25.899-73.636 7.1301-102.14-.82452-1.2523-2.7958-1.868-4.2457-1.4857-14.406 9.0669-25.02 39.307-29.947 56.275-4.3692 15.047-14.304 56.846-14.304 56.846-4.3823-.12637 13.317-63.935 13.317-63.935l8.5314-24.277c-10.043 0-23.882 46.976-30.005 51.784-1.749 1.3735-2.5495-5.0621-3.8087-7.6008-2.9667-5.9813-.34471 17.885-3.0112 20.37-2.0935 1.9514-3.4326-10.731-5.1211-7.0491-2.0271 4.4203-1.7129 12.328-3.3883 14.614-1.6754 2.2862-6.6341 6.8888-7.6356 5.5989-.35817-5.1632 8.3239-8.8664 2.3673-10.569-3.6395-.99132-6.8279 2.7459-12.842 2.9546 4.5926-6.6105 9.3567-13.326 13.937-18.911-4.5688-11.876-40.437 16.996-36.163 12.228s10.703-15.909 11.355-21.155c.65174-5.2464-4.4273-19.906-6.7558-16.931-2.3285 2.9748-15.979 34.032-30.925 39.537-7.5087 2.7397-4.3604-7.152-6.5511-6.5592s-6.3664 21.285-7.9715 14.956c-.70298-2.7719-.79688-17.792-3.2215-13.765s-3.6879 10.826-3.8108 7.8266-.4608-20.988-2.2686-23.562-2.751 8.271-4.5049 5.9699-27.688-52.103-36.39-49.787c9.8631 25.353 31.738 85.779 28.56 87.254-1.3414.62257-29.462-96.213-45.894-112.44-1.4663-.41267-3.5763.51644-4.3829 1.2937z" color="#000000" stroke-width=".52916" style="-inkscape-stroke:none"/>
  </g>
 </g>
</svg>
