<svg width="1920" height="1080" viewBox="0 0 508 285.75" xmlns="http://www.w3.org/2000/svg"><rect width="100%" height="100%" class="bg"/><g><g class="primary"><g><path d="M244.5 285.04c-1.262.02-2.852 1.625-4.958 2.145 3.602-.004 6.157-.045 9.515-.01-1.917-.486-3.296-2.157-4.557-2.136zM370.12 287.29c-.754-2.773.063-11.012-4.09-14.454-4.154-3.441-14.092-2.172-16.386-2.062-5.522.267-5.867 11.538-4.557 14.666-1.721 0-2.733-3.17-1.454-12.505.308-2.249-.537-2.472-3.5-2.446-2.942.025-8.136.77-11.287 2.062-2.983 1.224-3.434 12.932-3.434 12.932-1.376-.177-.921-6.98-.457-8.655.991-3.96.828-3.74-2.413-2.692-6.631 2.146-6.644 2.35-7.206 6.997-.304 2.512-.968 5.324-1.267 6.037M115.58 287.32c.753-2.773-.064-11.012 4.09-14.454 4.153-3.441 14.092-2.172 16.386-2.062 5.521.267 5.866 11.538 4.557 14.666 1.72 0 2.733-3.17 1.453-12.505-.308-2.249.537-2.472 3.5-2.446 2.942.025 8.136.77 11.287 2.062 2.983 1.224 3.434 12.932 3.434 12.932 1.376-.177.922-6.98.457-8.655-.991-3.96-.828-3.74 2.414-2.692 6.63 2.146 6.643 2.35 7.205 6.997.304 2.512.969 5.324 1.267 6.037"/></g><path d="M229.797 253.781c-.842-.002-1.153-2.26-.347-2.5l15.054-4.477 14.223 4.483c.824.26.114 2.475-.751 2.483-13.472.131-11.309-4.462-13.472-4.555-2.164-.092 0 4.614-14.708 4.566z"/></g><g class="secondary"><path d="M211.125 212.382c-10.661-.306-31.728 4.99-30.196 18.171 1.863 10.6 14.064 18.288 23.722 19.796s15.408-.502 18.833-6.502c1.406-2.463 2.129-7.94 1.245-8.059-2.52-.675-1.6 11.443-11.325 10.093-10.825-1.503-11.47-16.962-7.383-24.4 2.801-5.1 3.23-5.312 11.98-4.72 3.955.267 4.243 9.371 6.628 7.915.811-1.799.418-7.898.096-8.335-1.028-3.666-11.597-3.936-13.6-3.959zM276.99 212.128c-14.325-1.896-15.737 11.207-13.832 12.903 1.403.149 2.909-5.91 7.163-7.121 4.972-1.417 12.402 1.003 14.266 3.461 2.715 3.58.193 21.579-5.153 24.074-15.917 2.422-11.614-7.382-16.11-9.658-.632 0 .168 3.915.577 5.82 2.812 9.963 18 9.066 24.196 8.214 9.895-1.492 22.514-14.46 18.987-23.933-7.497-10.22-18.672-13.924-30.094-13.76z"/><path d="M130.73 58.302c-16.658 28.692-6.35 78.654 4.026 98.533 3.74 6.87-6.627.76-8.127-2.663-2.703 16.436 14.724 37.412 32.196 33.696-11.143 10.272-27.925-4.299-37.756-5.509-1.652 16.334 10.684 38.325 24.219 43.103-4.647 1.31-24.822 17.361-23.901 21.084 3.63-3.504 22.99-6.99 31.107-4.755-5.583 15.168-18.54 17.526-31.178 14.966 12.13 16.247 41.562 11.09 48.309 18.877 2.742 3.164 2.085 5.102 2.007 11.568 7.268-.118 13.281.096 16.322.023-.72-2.255 6.457-6.522 7.828-9.462-9.79-7.633-28.027-21.427-26.74-36.437 2.866-33.437 42.942-67.794 72.513-69.843 33.417.746 83.094 38.323 81.92 70.25-1.131 15.04-14.567 25.93-27.225 36.139 2.161 9.331 1.24 6.608 2.161 9.331 3.052.487 8.806.038 15.653-.038.071-8.084-.384-10.929 2.807-13.464 7.507-5.963 39.527-.762 48.77-17.874-9.204 2.019-24.45-.032-29.976-9.074 3.977-5.202 21.103 1.139 30.061-.194 3.824-4.137-24.872-20.992-24.562-21.1 19.614-3.826 29.125-49.166 20.97-42.385-8.062 7.557-33.489 11.398-34.412 5.184 17.212.376 35.685-33.581 35.685-33.581-2.323-1.128-11.197 3.604-14.73 6.286 13.72-28.025 25.9-73.636 7.13-102.14-.824-1.253-2.796-1.868-4.246-1.486-14.406 9.067-25.02 39.307-29.947 56.275-4.369 15.047-14.304 56.846-14.304 56.846-4.382-.126 13.317-63.935 13.317-63.935l8.532-24.277c-10.043 0-23.882 46.976-30.005 51.784-1.75 1.374-2.55-5.062-3.809-7.6-2.966-5.982-.345 17.884-3.011 20.37-2.093 1.95-3.433-10.732-5.121-7.05-2.027 4.42-1.713 12.328-3.388 14.614-1.676 2.286-6.634 6.889-7.636 5.599-.358-5.163 8.324-8.866 2.367-10.569-3.64-.991-6.828 2.746-12.842 2.955 4.593-6.61 9.357-13.326 13.937-18.911-4.568-11.876-40.437 16.996-36.163 12.228s10.703-15.91 11.355-21.155c.652-5.247-4.427-19.906-6.755-16.931-2.329 2.974-15.98 34.032-30.925 39.537-7.51 2.74-4.36-7.152-6.552-6.56s-6.366 21.285-7.971 14.956c-.703-2.771-.797-17.792-3.222-13.765s-3.687 10.826-3.81 7.827-.461-20.988-2.269-23.562-2.751 8.271-4.505 5.97-27.688-52.103-36.39-49.787c9.863 25.353 31.738 85.779 28.56 87.254-1.341.622-29.462-96.213-45.894-112.44-1.466-.413-3.576.516-4.383 1.294z"/></g></g></svg>
