<?xml version="1.0" encoding="UTF-8"?>
<!-- Created with Inkscape (http://www.inkscape.org/) -->
<svg width="1920" height="1080" version="1.1" viewBox="0 0 508 285.75" xmlns="http://www.w3.org/2000/svg">
 <rect x="5e-7" y="5e-7" width="508" height="285.75" rx="0" ry="0" fill="#292d3e" stroke-miterlimit="0" stroke-width="0" style="paint-order:stroke fill markers"/>
 <g stroke-width="2">
  <g fill="#ab47bc">
   <path transform="scale(.26458)" d="m948 1072c-1.9033 0-5.7481 1.8-8.5449 4-2.1496 1.6908-7.071 3.5282-10.192 4.1111 12.616-0.3825 23.891-0.1056 35.961-0.04-3.1926-0.569-6.4871-2.3467-8.6795-4.0712-2.7968-2.2-6.6416-4-8.5449-4z" color="#000000" style="-inkscape-stroke:none"/>
   <path transform="scale(.26458)" d="m634.66 1029.2c-3.3439-0.01-2.1174 3.0709 0.4375 11.859 4.6988 16.163 3.5662 35.416-1.0402 38.958 15.862-0.094 31.275 0.2764 43.431 0.1-1.6494-1.9198-3.143-8.1907-4.4008-20.794-1.8892-18.932-3.9154-21-26.773-27.338-5.9961-1.6627-9.648-2.7799-11.654-2.7852z" color="#000000" style="-inkscape-stroke:none"/>
   <path transform="scale(.26458)" d="m1263.5 1028.7c-1.7247-0.1541-4.8342 0.8018-9.8086 2.3321-25.177 7.7451-26.92 9.4383-28.775 27.967-1.041 10.393-2.0678 18.605-3.196 21.301 12.946 0.7088 27.125-0.4469 41.498 0.1175-4.7014-3.4685-5.176-22.798-0.4052-39.21 2.5902-8.91 3.5619-12.251 0.6875-12.508z" color="#000000" style="-inkscape-stroke:none"/>
   <path transform="scale(.26458)" d="m543 1019.1c-34.125 0.3451-53.361 13.735-64.324 44.775-2.2843 6.4677-4.1938 13.659-5.6094 16.033 10.128 0.4778 32.6 0.3591 86.275 0.2678-0.88303-0.3667-0.74688-1.5609-0.24127-2.3789 1.8009-2.9139 1.4796-41.283-0.37109-44.277-0.8078-1.307-1.5284-5.1183-1.5996-8.4687-0.12964-6.0916-0.12897-6.0927-14.129-5.9512z" color="#000000" style="-inkscape-stroke:none"/>
   <path transform="scale(.26458)" d="m1325.8 1018c-13.191 0.011-43.589 5.3738-47.41 8.3633-8.1436 6.3713-13.173 23.883-11.81 41.129 0.5846 7.3985 0.5583 11.493-0.4615 12.666 69.804 2.6791 148.2 3.8096 167.45 0.591-2.246-1.1117-5.3351-6.5369-9.0727-14.257-32.361-66.843-102.32-62.815-86.832 5 1.7393 7.614 1.5602 8.5-1.7226 8.5-6.5043 0-7.3664-18.222-2.5313-53.5 1.165-8.5 1.1644-8.4998-7.6074-8.4922z" color="#000000" style="-inkscape-stroke:none"/>
   <path transform="scale(.26458)" d="m572.23 1018c-8.7719-0.01-8.7724-0.01-7.6074 8.4922 4.5523 33.214 3.421 51.053-2.0532 53.578 12.528-0.025 26.131 0.4218 42.06 0.3639 9.9484-0.036 18.488-0.2816 27.24-0.3311-0.91822-1.2917-0.98372-5.4827-0.42049-12.61 1.3628-17.246-3.6649-34.758-11.809-41.129-3.8211-2.9895-34.219-8.3519-47.41-8.3633z" color="#000000" style="-inkscape-stroke:none"/>
   <path transform="scale(.26458)" d="m950.79 934.36c-19.792-0.30233-42.012 28.995-57.128 16.214-0.64021-0.54132-0.24879-1.8454 0.27498-2.5001 12.707-15.882 37.375-20.15 57.713-19.818 19.129 0.31262 52.874 1.2882 53.645 20.404 0.056 1.3885-2.3782 1.696-3.7646 1.7911-17.702 1.2144-32.999-15.82-50.74-16.091z" color="#000000" style="-inkscape-stroke:none"/>
  </g>
  <g fill="#676e95">
   <path transform="scale(.26458)" d="m824.46 797.54c-20.198-0.10782-41.568 2.3104-66.799 9.8849-25.231 7.5745-50.615 40.088-47.328 58.793 7.0408 40.064 37.533 65.509 89.662 74.82 14.402 2.5726 14.406 2.5718 37-2.1719 20.8-4.367 32.285-11.895 34.178-22.402 0.73928-4.1037 2.0663-7.8308 2.9991-11.771 0.59668-2.5204 1.5702-6.2519 1.6611-7.5904 0.2507-3.6914 2.1799-11.1 0.0469-11.1-0.88838 0-2.1573 2.025-2.8203 4.5-9.8418 36.736-21.807 45.937-50.516 38.848-12.004-2.9644-23.414-18.108-25.881-34.348-2.5698-16.92-2.8369-46.913 5.8881-63.802 8.725-16.889 30.41-24.862 51.413-19.206 8.0282 2.1618 20.023 19.833 20.029 29.508 8.7e-4 1.375 0.67915 2.5 1.5078 2.5 1.2347 0 1.5792-29.85 0.36328-31.5-0.20258-0.27515-0.48164-1.5869-0.61914-2.916-0.78572-7.5954-24.817-11.908-50.785-12.047z" color="#000000" style="-inkscape-stroke:none"/>
   <path transform="scale(.26458)" d="m1073.4 796.58c-12.931 0.17431-25.389 2.0919-36.604 5.7734-15.468 5.0779-16.82 7.312-16.82 27.777 0 17.298 1.654 17.418 7.9961 0.57812 11.481-30.484 61.885-28.148 72.166 3.3457 11.088 33.967-2.7421 91.654-20.569 97.49-17.827 5.8358-38.205-6.9856-48.148-17.992-2.4631-2.7266-2.1563-7.0255-3.1855-10.553-1.1156-3.8232-1.6751-7.8379-3.2403-11.5-0.8367-1.9575-2.0638-5.5-3.2461-5.5-2.3884 0 0.6335 14.795 2.1797 22 0.6243 2.9089 1.4651 5.8235 2.8418 8.4609 2.5347 4.8559 3.2637 8.7502 9.7891 13.199 9.1838 6.2615 41.422 15.021 78.82 9.3823 37.398-5.6389 85.096-54.654 71.762-90.457-3.4989-9.3947-37.502-37.288-61.438-46.722-16.303-6.4252-35.678-5.5078-52.304-5.2837z" color="#000000" style="-inkscape-stroke:none"/>
   <path transform="scale(.26458)" d="m523.81 215.12c-18.727 18.046-22.935 53.317-25.072 73.883-0.45725 4.4-2.1282 16.1-3.7129 26-4.5157 28.211-5.7472 63.426-3.2891 94.027 3.1668 39.424 6.4897 71.452 7.7793 74.973 0.60439 1.65 0.91598 4.4991 0.69336 6.332-0.22261 1.833 3.6237 15.45 8.5469 30.26 8.3375 25.081 12.512 34.312 30.273 66.939 14.133 25.962 0.771 21.555-22.838-7.5312-4.7276-5.8244-5.0234-4.2172-2.291 12.465 2.0352 12.425 3.4223 15.94 18.752 47.535 9.0709 18.695 22.331 38.392 28.578 42.449 1.2272 0.79695 7.4405 7.8163 13.807 15.598 13.184 16.115 34.414 20.181 45.234 8.6641 4.9411-5.2596 9.7285-6.1894 9.7285-1.8887 0 23.981-66.001 18.09-121.65-10.857-10.537-5.4808-20.011-9.9648-21.053-9.9648-2.371 0-0.11456 34.565 2.5781 39.492 1.0545 1.9298 3.4184 10.708 5.2539 19.508 9.6574 46.302 46.512 92.05 83.707 103.91 5.3694 1.7118 2.3176 3.8822-12.834 9.123-31.7 10.965-51.033 25.889-72.5 55.967-7.386 10.349-10.186 18.523-5 14.6 4.983-3.77 29.74-6.96 66.732-8.5996 20.772-0.92066 40.243-2.3009 43.268-3.0684 4.3433-1.1018 5.5-0.70054 5.5 1.9082 0 3.1681-1.5982 6.2282-10.824 20.723-12.425 19.519-55.735 33.35-90.176 28.797-7.7-1.0179-14.346-1.5434-14.77-1.168-1.7209 1.5269 4.3427 8.7395 11.892 17.31 7.5494 8.5709 18.708 23.441 28.393 26.173 9.6851 2.7323 14.129 3.329 31.198 3.3384 66.553 0.038 116.4 17.325 119.09 41.305 0.72147 6.4256 1.8152 15.059 2.4297 19.184 0.50531 3.392-0.0546 6.4873-0.53771 7.5472 27.47-0.4438 47.907 0.5735 59.401 0.2994 0.0813-0.5577-1.0555-4.9939-0.88886-5.6846 0.75164-3.114 3.9355-10.806 7.0742-17.094 5.7068-11.432 5.7056-11.434 1.2109-13.783-5.968-3.1189-28.478-20.693-38.494-30.053-4.4-4.1118-12.197-11.358-17.328-16.103-39.965-36.964-62.225-80.895-52.479-99.129 4.0663-7.6071 7.7742-14.291 11.801-22.018 11.428-18.432 21.589-35.663 29.035-49.482 3.5513-6.6 10.353-16.95 15.115-23 4.7627-6.05 12.91-17.3 18.105-25 12.973-19.226 23.579-31.642 52.938-61.977 13.853-14.313 28.703-29.991 33-34.842s14.035-12.95 21.641-18c7.6058-5.0496 16.266-10.982 19.244-13.182 13.248-9.7873 29.823-21 31.043-21 0.73395 0 10.473-5.2553 21.645-11.678 19.388-11.146 39.996-20.47 51.645-23.365 14.144-3.5161 94.515 37.368 119.02 60.543 18.75 13.469 37.787 32.234 50.736 45.5 50.552 51.957 42.855 42.678 61.822 66.155 4.9813 6.1658 7.2182 11.648 13.574 19.525 12.633 15.654 20.244 26.058 23.629 32.293 1.2027 2.2155 3.9836 7.1774 6.1797 11.027 2.1961 3.85 7.9632 14.037 12.814 22.637 4.8514 8.6 9.7555 17.279 10.898 19.287 1.143 2.0077 3.048 4.8709 4.2344 6.3633 5.1206 6.441 14.46 25.463 15.672 31.922 2.5095 13.377-28.074 60.452-56.795 87.42-5.0541 4.7456-12.79 12.008-17.19 16.139-7.2854 6.8401-32.03 26.361-39.59 31.232-2.7264 1.7567-2.4257 3.377 2.4785 13.314 2.3248 4.7108 4.367 18.314 5.6924 21.956 11.533 1.8376 33.282 0.1423 59.162-0.1448-0.053-1.1313-0.3111-5.512-0-7.6255 0.6009-4.125 1.6667-12.45 2.3672-18.5 2.0649-17.832 5.0518-20.76 27.893-27.34 37.635-10.841 61.257-14.66 90.67-14.66 17.624 0 22.126-0.5861 32.285-3.3243s32.138-21.33 41.926-40.289c2.3822-4.6142 2.3814-4.6142-10.25-3-49.274 6.2968-85.414-7.0058-103.25-38.002-6.1443-10.678-5.8259-14.216 1.1191-12.461 3.025 0.76433 23.5 2.2015 45.5 3.1953 28.392 1.2826 43.918 2.9016 53.5 5.5762 7.425 2.0724 13.5 3.4031 13.5 2.957 0-13.149-37.65-51.995-60-61.908-16.79-7.4466-18.474-8.1514-26-10.863-9.4174-3.3934-11.475-5.4931-6.834-6.9727 16.471-5.251 49.222-32.088 62.127-50.908 20.231-29.504 43.416-135.54 12.946-106.98-30.469 28.562-122.39 40.767-125.88 17.279-0.8451-5.6852 3.1416-5.4705 7.7735 0.41797 9.3146 11.842 33.328 7.364 50.32-10.556 16.992-17.92 27.678-34.056 39.186-57.161 13.457-27.018 16.576-34.965 18.562-47.303 2.2385-13.9 0.7325-18.181-3.9394-11.199-4.2709 6.3821-12.137 15.263-19.047 21.502-7.75 6.9969-13.415 1.0449-7.3574-7.7305 17.106-24.782 27.849-49.12 38.963-88.27 17.383-61.231 18.822-176.03 2.8496-227.22-2.0974-6.7224-4.1793-15.722-4.627-20-0.4477-4.2776-0.9345-7.7773-1.082-7.7773-0.1474 0-0.5863-1.6846-0.9746-3.7441-1.3632-7.2314-6.1614-22.739-14.475-30.18-4.2225-3.7796-10.567-7.0603-16.047-5.6152-7.7235 2.0368-5.2898 7.2921-15.773 18.039-10.462 10.725-23.786 25.35-29.609 32.5s-13.01 15.238-15.969 17.973c-2.9588 2.7351-7.4211 9.0351-9.916 14-2.4949 4.9649-5.5654 10.827-6.8222 13.027-10.011 17.523-27.69 62.668-29.371 75-0.375 2.75-0.8226 5-0.9961 5s-0.597 1.35-0.9395 3c-8.7925 42.359-11.903 61.37-17.02 104-7.6369 63.628-10.198 77.891-16.904 94.096-2.9372 7.0978-5.6617 14.254-6.0547 15.904-3.1645 13.288-15.785 34-20.717 34-5.7091 0-6.0562-5.4829-0.6016-9.5156 3.5112-2.5959 7.7091-9.25 10.961-17.373 2.8985-7.2404 7.0407-16.976 9.2051-21.637 5.0388-10.851 10.06-30.371 10.06-39.107 0-3.7362 1.3003-14.572 2.8906-24.08 5.0584-30.241 9.5389-68.284 9.894-72.138 0.3552-3.8539 1.2164-8.6061 1.2174-13.766 0-11.091 5.1592-36.549 12.029-59.383 0.993-3.3 3.1746-10.857 4.8497-16.795 1.675-5.9374 7.0187-19.437 11.873-30 8.5539-18.613 13.473-33.372 9.7344-29.205-0.9868 1.1-8.8727 10.55-17.525 21s-19.472 23.089-24.043 28.088c-7.8457 8.5804-31.374 43.251-37.854 55.781-1.6357 3.1631-4.1778 6.9622-5.6504 8.4414-10.348 10.394-23.051 40.859-31.144 74.689-2.8766 12.024-7.7062 3.9472-8.0723-13.5-0.2275-10.837-2.6767-12.276-5.957-3.5-1.2335 3.3-3.3565 8.925-4.7188 12.5s-2.9374 5.9821-3.6836 9.2001c-2.7367 11.803-1.9816 13.101-2.7187 36.245-0.4536 14.244-1.6584 25.234-2.8086 25.617-3.1034 1.0345-12.932-22.752-11.781-28.588 1.0525-5.3359-3.8455-4.6295-5.9401 1.5253-5.8051 17.058-5.3263 20.027 4.1934 26.043 13.289 8.3976 13.316 12.748 0.1152 18.586-10.148 4.4879-10.747 5.1436-9.6582 10.586 1.2472 6.2363-2.4411 10.701-4.4707 5.4121-1.7904-4.6657-6.8581-3.7924-13.19 2.2734-5.0339 4.8228-5.9621 5.0769-8.666 2.373-2.7039-2.7039-1.8967-3.7526 7.5293-9.8086 5.8056-3.73 7.4381-5.6397 11.221-8.373 1.9018-1.3743 3.75-2.8375 5.7679-4.0348 2.1013-1.2468 3.2661-2.1077 6.5661-3.2581 8.294-2.8913 7.5401-5.1336-3.4609-10.305-11.45-5.382-36.994-5.0529-48.371 0.62305-3.7303 1.8609-7.7686 3.3878-8.9746 3.3945-1.2061 8e-3 -4.6684 1.3048-7.6934 2.8828s-5.5 2.3317-5.5 1.6758c0-0.65593 2.475-4.4234 5.5-8.373 3.025-3.9496 7.5193-10.143 9.9883-13.762 2.469-3.6192 5.3813-7.6728 6.4707-9.0078 10.592-12.98 18.713-25.759 30.717-40.334 12.004-14.575-82.754 15.572-122.68 42.715-9.7747 6.6457-14 7.7028-14 3.502 0-3.1036 4.6722-7.3204 12.375-11.168 14.543-7.2643 29.547-46.11 26.707-69.143-1.7664-14.324-12.452-46.122-17.441-51.9-0.90233-1.045-1.6406-3.52-1.6406-5.5 0-6.4916-2.9106-3.7397-8.3809 7.9258-31.312 66.774-27.611 60.893-55.197 87.768-13.872 13.515-25.593 24.202-34.007 30.84-8.4174 6.6376-14.492 11.589-21.917 16.658-17.92 12.235-30.589 12.428-21.436 0.32617 4.262-5.6349 1.6834-25.117-3.3242-25.117-1.2508 0-7.4751 18.428-8.5605 25.344-0.20221 1.2892-3.5949 8.9391-7.5391 17-3.9441 8.0609-7.9746 17.356-8.9551 20.656-2.7214 9.1595-5.7594 5.283-5.0742-6.4727 1.4683-25.192-8.534-67.931-12.176-52.027-0.56678 2.475-2.1569 7.65-3.5352 11.5-3.7323 10.426-4.5363 12.865-4.7266 14.334-0.40808 3.15-3.2872 4.0616-5.9219 1.875-2.2554-1.8718-2.3909-3.5718-0.64648-8.1934 3.256-8.6261-0.84813-46.188-6.4766-59.271-3.8923-9.0479-5.447-14.053-5.9766-19.244-0.62483-6.1246-4.1928 0.4352-4.3516 8-0.37001 17.641-6.2695 27.572-8.3691 14.09-2.9954-19.234-11.133-40.55-23.896-62.59-24.677-42.612-41.368-66.466-70.285-100.44-11.963-14.057-22.495-25.842-23.404-26.191-1.911-0.73361 4.7734 16.534 14.049 36.289 7.0795 15.078 11.091 27.728 15.014 47.346 1.4295 7.15 3.9775 18.85 5.6621 26 1.6846 7.15 5.4194 31.45 8.3008 54 2.8813 22.55 6.564 48.779 8.1836 58.287 1.6195 9.5077 2.9453 20.368 2.9453 24.135 0 9.6311 6.3476 32.493 12.764 45.969 2.983 6.2654 5.77 13.183 6.1914 15.371 1.2871 6.6835 4.7478 11.755 11.123 16.295 4.8595 3.4603 5.6181 4.8994 3.7598 7.1387-3.4596 4.1686-6.2346 3.244-12.338-4.1133-3.025-3.6466-5.5-7.2025-5.5-7.9004 0-0.69781-3.6678-9.1234-8.1504-18.725-4.4826-9.6012-8.4296-19.707-9.7311-23.582s-5.3184-31.187-11.224-79.875c-8.3283-68.662-14.625-101.98-25.326-134-2.2057-6.6-4.1608-12.9-4.3438-14-0.73546-4.4214-18.368-44.49-22.796-53.756-4.4281-9.266-29.427-36.338-42.666-50.33-5.7512-6.0783-13.285-14.723-17.875-17.626-4.5903-2.903-9.3354-17.406-17.906-19.804-4.077-1.1406-9.1214 0.69526-12.17 3.6328z" color="#000000" style="-inkscape-stroke:none"/>
  </g>
 </g>
</svg>
