<?xml version="1.0" encoding="UTF-8" standalone="no"?>
<!-- Created with Inkscape (http://www.inkscape.org/) -->

<svg
   width="1920"
   height="1080"
   viewBox="0 0 507.99999 285.75001"
   version="1.1"
   id="svg5"
   sodipodi:docname="Wallpaper.svg"
   inkscape:version="1.1 (c4e8f9ed74, 2021-05-24)"
   inkscape:export-filename="/home/alex/Desktop/Wallpaper.png"
   inkscape:export-xdpi="96"
   inkscape:export-ydpi="96"
   xmlns:inkscape="http://www.inkscape.org/namespaces/inkscape"
   xmlns:sodipodi="http://sodipodi.sourceforge.net/DTD/sodipodi-0.dtd"
   xmlns="http://www.w3.org/2000/svg"
   xmlns:svg="http://www.w3.org/2000/svg">
  <sodipodi:namedview
     id="namedview7"
     pagecolor="#ffffff"
     bordercolor="#666666"
     borderopacity="1.0"
     inkscape:pageshadow="2"
     inkscape:pageopacity="0.0"
     inkscape:pagecheckerboard="0"
     inkscape:document-units="mm"
     showgrid="false"
     units="px"
     inkscape:zoom="1"
     inkscape:cx="930.5"
     inkscape:cy="824.5"
     inkscape:window-width="1912"
     inkscape:window-height="1036"
     inkscape:window-x="1600"
     inkscape:window-y="36"
     inkscape:window-maximized="1"
     inkscape:current-layer="layer1"
     inkscape:lockguides="true" />
  <defs
     id="defs2">
    <clipPath
       clipPathUnits="userSpaceOnUse"
       id="clipPath34036">
      <path
         id="path34038"
         style="fill:#ff0000;fill-opacity:1;fill-rule:nonzero;stroke:none"
         d="M 471.06836,208.46484 V 1081.8105 H 1438 V 208.46484 Z m 192.41992,659.30274 c 1.21334,7.6e-4 2.00445,1.31332 0.84766,3.16992 -1.40221,2.25056 -1.7502,4.9396 -2.81641,7.33008 -0.19755,0.44292 -0.43225,0.86858 -0.64844,1.30273 -0.50458,0.8251 -1.01505,1.64428 -1.51367,2.47071 0.30826,1.00984 -0.0373,1.71463 -0.78711,1.96289 0.3347,0.34705 0.3828,0.45476 -0.17383,0.043 -0.67237,0.13501 -1.47563,-0.007 -2.3125,-0.95118 -0.68224,-0.76962 -3.63997,-3.58864 -2.53125,-4.96484 0.0711,-0.0882 0.14708,-0.16949 0.22852,-0.24219 0.0608,-0.75192 0.40017,-0.9299 0.89844,-1.43359 -0.0332,0.006 -0.0574,0.01 -0.0918,0.0156 -0.0782,0.0151 0.2556,-0.18673 0.20117,-0.1289 -0.0373,0.0397 -0.0737,0.0772 -0.10937,0.11328 1.6153,-0.27571 1.78356,-0.24638 1.28515,-0.33008 0.25905,-0.0227 0.77678,-0.0107 1.1211,-0.01 0.56515,-0.0451 1.09956,-0.20026 1.63281,-0.38281 0.002,-7.6e-4 0.004,-0.001 0.006,-0.002 0.76288,-2.14922 1.2168,-4.43186 2.45312,-6.38281 0.70254,-1.10863 1.58255,-1.58054 2.31055,-1.58008 z m -8.0293,9.30469 c -0.55229,0.15216 -0.78914,0.17882 -0.95703,0.37695 0.97463,-0.40585 1.93499,-0.23183 0.95703,-0.37695 z m 1.64258,0.55859 c -6.1e-4,0.002 0.003,0.0139 0.01,0.0352 0.0198,0.0586 0.0518,0.11345 0.0859,0.16992 -0.0473,-0.11708 -0.0936,-0.21343 -0.0957,-0.20508 z" />
    </clipPath>
  </defs>
  <g
     inkscape:label="Base"
     inkscape:groupmode="layer"
     id="layer1"
     style="display:inline;opacity:1">
    <path
       style="color:#000000;fill:#ff007f;stroke-width:2;-inkscape-stroke:none;fill-opacity:1"
       d="m 948,1072 c -1.90333,0 -5.74807,1.8 -8.54492,4 -2.14957,1.6908 -5.04741,2.8468 -8.16797,3.4297 4.72389,0.1624 10.66579,0.2771 17.71289,0.2851 6.61473,0.01 11.65724,-0.094 15.89648,-0.2441 -3.19255,-0.569 -6.15919,-1.7462 -8.35156,-3.4707 -2.79685,-2.2 -6.64159,-4 -8.54492,-4 z"
       id="path4374"
       transform="scale(0.26458333)" />
    <path
       style="color:#000000;fill:#ff007f;stroke-width:2;-inkscape-stroke:none;fill-opacity:1"
       d="m 634.65625,1029.166 c -3.3439,-0.01 -2.11737,3.0709 0.4375,11.8594 4.69885,16.1634 4.28025,34.7823 -0.32617,38.3242 15.86163,-0.094 29.91964,-0.2333 42.07617,-0.4101 -1.64942,-1.9198 -2.50201,-7.0472 -3.75977,-19.6504 -1.88923,-18.9315 -3.91538,-20.9995 -26.77343,-27.3379 -5.99613,-1.6627 -9.64796,-2.7799 -11.6543,-2.7852 z"
       id="path4372"
       transform="scale(0.26458333)" />
    <path
       style="color:#000000;fill:#ff007f;stroke-width:2;-inkscape-stroke:none;fill-opacity:1"
       d="m 1263.5293,1028.7402 c -1.7247,-0.1541 -4.8342,0.8018 -9.8086,2.3321 -25.1769,7.7451 -26.9195,9.4383 -28.7754,27.9668 -1.041,10.393 -1.7995,15.7103 -2.9277,18.4062 12.9456,0.7088 26.803,1.3536 41.1758,1.918 -4.7014,-3.4685 -5.1224,-21.7042 -0.3516,-38.1153 2.5902,-8.91 3.5619,-12.2509 0.6875,-12.5078 z"
       id="path4370"
       transform="scale(0.26458333)" />
    <path
       style="color:#000000;fill:#ff007f;stroke-width:2;-inkscape-stroke:none;fill-opacity:1"
       d="m 543,1019.1406 c -34.12498,0.3451 -53.36128,13.7351 -64.32422,44.7754 -2.28428,6.4677 -3.84413,10.3899 -5.25976,12.7637 9.36702,2.6132 32.72617,3.062 86.40039,2.9707 -0.88303,-0.3667 -1.22241,-0.9945 -0.7168,-1.8125 1.80091,-2.9139 1.47959,-41.2832 -0.37109,-44.2774 -0.8078,-1.307 -1.52837,-5.1183 -1.59961,-8.4687 -0.12964,-6.0916 -0.12897,-6.0927 -14.12891,-5.9512 z"
       id="path4368"
       transform="scale(0.26458333)" />
    <path
       style="color:#000000;fill:#ff007f;stroke-width:2;-inkscape-stroke:none;fill-opacity:1"
       d="m 1325.7715,1018.0076 c -13.1911,0.011 -43.5891,5.3738 -47.4102,8.3633 -8.1436,6.3713 -13.1733,23.883 -11.8105,41.1289 0.5846,7.3985 0.469,10.8098 -0.5508,11.9824 69.8041,2.6791 148.166,3.4237 167.4102,0.2051 -2.246,-1.1117 -5.2078,-5.4675 -8.9454,-13.1875 -32.3611,-66.84325 -102.3229,-62.8148 -86.832,5 1.7393,7.614 1.5602,8.5 -1.7226,8.5 -6.5043,0 -7.3664,-18.2221 -2.5313,-53.5 1.165,-8.5 1.1644,-8.4998 -7.6074,-8.4922 z"
       id="path4366"
       transform="scale(0.26458333)" />
    <path
       style="color:#000000;fill:#ff007f;stroke-width:2;-inkscape-stroke:none;fill-opacity:1"
       d="m 572.22852,1018.0076 c -8.77187,-0.01 -8.77243,-0.01 -7.60743,8.4922 4.55229,33.2145 4.10116,50.6161 -1.37304,53.1406 12.52776,-0.025 26.12404,-0.069 42.05273,-0.1269 9.94838,-0.036 17.83047,-0.097 26.58203,-0.1465 -0.91822,-1.2917 -0.99877,-4.7394 -0.43554,-11.8672 1.36278,-17.2459 -3.66489,-34.7576 -11.8086,-41.1289 -3.82106,-2.9895 -34.21911,-8.3519 -47.41015,-8.3633 z"
       id="path4364"
       transform="scale(0.26458333)" />
    <path
       style="color:#000000;fill:#ff007f;stroke-width:2;-inkscape-stroke:none;fill-opacity:1"
       d="m 950.78904,934.35755 c -19.79243,-0.30233 -42.01233,28.99461 -57.12791,16.21374 -0.64021,-0.54132 -0.24879,-1.84544 0.27498,-2.50009 12.70715,-15.8825 37.37533,-20.15039 57.71286,-19.81802 19.12891,0.31262 52.87393,1.28819 53.64503,20.40411 0.056,1.38853 -2.3782,1.69602 -3.7646,1.79113 -17.70193,1.21445 -32.99888,-15.81987 -50.74036,-16.09087 z"
       id="path4362"
       transform="scale(0.26458333)" />
    <path
       style="color:#000000;fill:#575757;stroke-width:2;-inkscape-stroke:none;fill-opacity:1"
       d="m 824.46484,797.53711 c -20.19757,-0.10782 -41.56818,2.31036 -66.79903,9.88488 -25.23086,7.57452 -50.61501,40.08843 -47.32792,58.79285 7.04081,40.06398 37.53298,65.50896 89.66211,74.82032 14.40215,2.57257 14.4061,2.57181 37,-2.17188 20.79984,-4.36705 32.2848,-11.89488 34.17773,-22.40234 0.73928,-4.10374 2.06629,-7.83081 2.99906,-11.77088 0.59668,-2.52036 1.57019,-6.25189 1.6611,-7.59045 0.2507,-3.6914 2.17994,-11.09961 0.0469,-11.09961 -0.88838,0 -2.15727,2.02501 -2.82032,4.5 -9.84177,36.73633 -21.80675,45.93729 -50.51562,38.84766 -12.00401,-2.9644 -23.41449,-18.10813 -25.88086,-34.34766 -2.56978,-16.92008 -2.83691,-46.91254 5.88811,-63.80173 8.72502,-16.8892 30.40976,-24.86158 51.41267,-19.20608 8.02821,2.16177 20.02321,19.83267 20.0293,29.50781 8.7e-4,1.37499 0.67915,2.5 1.50781,2.5 1.2347,0 1.57915,-29.85043 0.36328,-31.5 -0.20258,-0.27515 -0.48164,-1.58687 -0.61914,-2.91602 -0.78572,-7.59535 -24.81685,-11.90825 -50.78516,-12.04687 z"
       id="path4354"
       transform="scale(0.26458333)" />
    <path
       style="color:#000000;fill:#575757;stroke-width:2;-inkscape-stroke:none;fill-opacity:1"
       d="m 1073.4238,796.58008 c -12.9307,0.17431 -25.3889,2.09194 -36.6035,5.77344 -15.4683,5.07787 -16.8203,7.31199 -16.8203,27.77734 0,17.29791 1.654,17.41773 7.9961,0.57812 11.4809,-30.4843 61.8853,-28.14762 72.166,3.34571 11.088,33.96657 -2.7421,91.65445 -20.5687,97.49021 -17.8266,5.83575 -38.2051,-6.98559 -48.1481,-17.99217 -2.4631,-2.72655 -2.1563,-7.02547 -3.1855,-10.55273 -1.1156,-3.82317 -1.6751,-7.83789 -3.2403,-11.5 -0.8367,-1.95752 -2.0638,-5.5 -3.2461,-5.5 -2.3884,0 0.6335,14.79481 2.1797,22 0.6243,2.90891 1.4651,5.82349 2.8418,8.46094 2.5347,4.85594 3.2637,8.75018 9.7891,13.19922 9.1838,6.26146 41.4223,15.02119 78.8203,9.38231 37.3979,-5.63888 85.096,-54.65386 71.7617,-90.45653 -3.4989,-9.39466 -37.5017,-37.28839 -61.4384,-46.7222 -16.3029,-6.42522 -35.6785,-5.50777 -52.3038,-5.28366 z"
       id="path4352"
       transform="scale(0.26458333)" />
    <path
       style="color:#000000;fill:#575757;stroke-width:2;-inkscape-stroke:none;fill-opacity:1"
       d="m 523.81055,215.11719 c -18.72743,18.04574 -22.9351,53.31696 -25.07227,73.88281 -0.45725,4.4 -2.12821,16.1 -3.71289,26 -4.5157,28.21062 -5.74715,63.42564 -3.28906,94.02734 3.16675,39.42354 6.48967,71.4518 7.77929,74.97266 0.60439,1.64999 0.91598,4.49907 0.69336,6.33203 -0.22261,1.833 3.6237,15.44991 8.54688,30.25977 8.33752,25.08094 12.51234,34.31245 30.27344,66.93945 14.13275,25.96176 0.771,21.5552 -22.83789,-7.53125 -4.72755,-5.8244 -5.02339,-4.21716 -2.29102,12.46484 2.03516,12.42531 3.42227,15.94043 18.75195,47.53516 9.07087,18.69517 22.33121,38.3925 28.57813,42.44922 1.22725,0.79695 7.44052,7.81629 13.80664,15.59766 13.18413,16.11485 34.41442,20.18137 45.23437,8.66406 4.94109,-5.25959 9.72852,-6.18936 9.72852,-1.88867 0,23.9808 -66.00061,18.09016 -121.65234,-10.85743 C 497.81079,688.484 488.33701,684 487.29492,684 c -2.37097,0 -0.11456,34.56478 2.57813,39.49219 1.05449,1.92982 3.41845,10.70782 5.2539,19.50781 9.65738,46.30152 46.5118,92.05012 83.70703,103.9082 5.36943,1.71183 2.31758,3.88217 -12.83398,9.12305 -31.69992,10.96486 -51.03255,25.88864 -72.5,55.9668 -7.38603,10.34865 -10.1857,18.52298 -5,14.59961 4.98297,-3.77004 29.73958,-6.96005 66.73242,-8.59961 20.77191,-0.92066 40.2426,-2.30093 43.26758,-3.06836 4.34332,-1.10181 5.5,-0.70054 5.5,1.9082 0,3.16808 -1.59817,6.22821 -10.82422,20.72266 -12.42452,19.5194 -55.73499,33.34984 -90.17578,28.79687 -7.69999,-1.0179 -14.34649,-1.54335 -14.76953,-1.16797 -1.72086,1.52693 4.34269,8.7395 11.8921,17.31043 7.54942,8.57094 18.70775,23.44102 28.39282,26.17342 9.68507,2.7323 14.12919,3.329 31.1975,3.3384 66.55291,0.038 116.3993,17.3247 119.0918,41.3047 0.72147,6.4256 1.81517,15.0586 2.42969,19.1836 0.50531,3.392 0.56714,5.321 0.084,6.3809 27.46976,-0.4438 46.40016,-1.1722 57.625,-2.5157 0.0813,-0.5577 0.0989,-1.0124 0.26562,-1.7031 0.75164,-3.114 3.93548,-10.8059 7.07422,-17.0937 5.70683,-11.4325 5.70563,-11.4343 1.21094,-13.7832 -5.96795,-3.1189 -28.47794,-20.6927 -38.49414,-30.0528 -4.40001,-4.1118 -12.19726,-11.3579 -17.32812,-16.10349 C 651.70717,960.6652 629.44679,916.73372 639.19336,898.5 c 4.06629,-7.60714 7.77424,-14.29129 11.80078,-22.01758 11.42771,-18.43205 21.58859,-35.66331 29.03516,-49.48242 3.55132,-6.6 10.35254,-16.95 15.11523,-23 4.76266,-6.05 12.90987,-17.30001 18.10547,-25 12.97311,-19.22623 23.57892,-31.64177 52.9375,-61.97656 13.85265,-14.31322 28.70264,-29.99138 33,-34.8418 4.29736,-4.85042 14.03481,-12.95044 21.64062,-18 7.60585,-5.04956 16.26629,-10.98161 19.24415,-13.18164 13.24781,-9.78731 29.82282,-21 31.04296,-21 0.73395,0 10.47339,-5.25533 21.64454,-11.67773 19.3881,-11.14636 39.99561,-20.46952 51.64453,-23.36524 14.14435,-3.51606 94.5154,37.36755 119.0195,60.54297 18.7495,13.4691 37.7874,32.23354 50.7364,45.5 50.552,51.95686 42.8547,42.67788 61.822,66.15513 4.9813,6.16576 7.2182,11.64817 13.5744,19.52456 12.6327,15.65386 20.2445,26.05773 23.6289,32.29297 1.2027,2.21548 3.9836,7.17736 6.1797,11.02734 2.1961,3.85002 7.9632,14.03674 12.8145,22.63672 4.8514,8.59997 9.7555,17.27939 10.8984,19.28711 1.143,2.00772 3.048,4.87093 4.2344,6.36328 5.1206,6.44099 14.4603,25.46342 15.6719,31.92187 2.5095,13.37696 -28.0744,60.45217 -56.7949,87.41993 -5.0541,4.74559 -12.7895,12.00759 -17.1895,16.13869 -7.2854,6.8401 -32.0301,26.3613 -39.5898,31.2324 -2.7264,1.7567 -2.4257,3.377 2.4785,13.3145 2.3248,4.7108 4.6668,10.133 5.9922,13.7753 11.5328,1.8376 32.6803,3.5757 58.5332,5.0606 -0.053,-1.1313 0.018,-2.5369 0.3261,-4.6504 0.6009,-4.125 1.6667,-12.45 2.3672,-18.5 2.0649,-17.8324 5.0518,-20.7605 27.8926,-27.3398 37.6347,-10.8408 61.2571,-14.6602 90.6699,-14.6602 17.6243,0 22.1264,-0.5861 32.2846,-3.3243 10.1582,-2.7382 32.1381,-21.32955 41.9264,-40.28898 2.3822,-4.6142 2.3814,-4.6142 -10.25,-3 -49.2745,6.29684 -85.414,-7.00575 -103.25,-38.00195 -6.1443,-10.67762 -5.8259,-14.21574 1.1191,-12.46094 3.025,0.76433 23.5,2.20152 45.5,3.19531 28.3924,1.28258 43.9176,2.90163 53.5,5.57617 7.425,2.07239 13.5,3.40313 13.5,2.95703 0,-13.14859 -37.6495,-51.99537 -60,-61.9082 -16.7898,-7.44661 -18.4741,-8.15139 -26,-10.86328 -9.4174,-3.39345 -11.4749,-5.49312 -6.834,-6.97266 16.4708,-5.25101 49.2225,-32.08842 62.127,-50.9082 20.2308,-29.50435 43.4156,-135.5425 12.9463,-106.98064 -30.4693,28.56185 -122.3866,40.76655 -125.878,17.27947 -0.8451,-5.68524 3.1416,-5.4705 7.7735,0.41797 9.3146,11.84163 33.3285,7.36399 50.3199,-10.55603 16.9915,-17.92002 27.6778,-34.05565 39.1859,-57.16077 13.4573,-27.01833 16.5755,-34.96458 18.5625,-47.30273 2.2385,-13.89967 0.7325,-18.18058 -3.9394,-11.19922 -4.2709,6.38207 -12.1369,15.26346 -19.0469,21.50195 -7.75,6.99689 -13.4149,1.04491 -7.3574,-7.73047 17.1065,-24.78198 27.8486,-49.11971 38.9629,-88.26953 17.3828,-61.23092 18.8225,-176.02601 2.8496,-227.22266 -2.0974,-6.72237 -4.1793,-15.72237 -4.627,-20 -0.4477,-4.27762 -0.9345,-7.77734 -1.082,-7.77734 -0.1474,0 -0.5863,-1.68462 -0.9746,-3.74414 -1.3632,-7.23137 -6.1614,-22.73853 -14.4746,-30.17969 -4.2225,-3.77957 -10.5672,-7.06032 -16.0469,-5.61523 -7.7235,2.03683 -5.2898,7.29211 -15.7734,18.03906 -10.4623,10.725 -23.786,25.35 -29.6094,32.5 -5.8234,7.15 -13.0099,15.23757 -15.9688,17.97266 -2.9588,2.73509 -7.4211,9.0351 -9.916,14 -2.4949,4.96492 -5.5654,10.82734 -6.8222,13.02734 -10.0111,17.52326 -27.6904,62.6683 -29.3711,75 -0.375,2.75002 -0.8226,5 -0.9961,5 -0.1735,0 -0.597,1.35001 -0.9395,3 -8.7925,42.35921 -11.9029,61.37029 -17.0195,104 -7.6369,63.62835 -10.1985,77.89105 -16.9043,94.0957 -2.9372,7.0978 -5.6617,14.25427 -6.0547,15.9043 -3.1645,13.28791 -15.7846,34 -20.7168,34 -5.7091,0 -6.0562,-5.48286 -0.6016,-9.51562 3.5112,-2.5959 7.7091,-9.25005 10.961,-17.37305 2.8985,-7.24044 7.0407,-16.97611 9.2051,-21.63672 5.0388,-10.85057 10.0605,-30.37135 10.0605,-39.10742 0,-3.73625 1.3003,-14.57241 2.8906,-24.08008 5.0584,-30.24079 9.5389,-68.28422 9.894,-72.13809 0.3552,-3.85386 1.2164,-8.60613 1.2174,-13.76621 0,-11.09087 5.1592,-36.54872 12.0292,-59.38281 0.993,-3.3 3.1746,-10.85748 4.8497,-16.79492 1.675,-5.93744 7.0187,-19.43744 11.873,-30 8.5539,-18.61252 13.4728,-33.37222 9.7344,-29.20508 -0.9868,1.1 -8.8727,10.55 -17.5254,21 -8.6527,10.45 -19.4724,23.08935 -24.043,28.08789 -7.8457,8.58042 -31.3741,43.2514 -37.8535,55.78125 -1.6357,3.16309 -4.1778,6.96221 -5.6504,8.44141 -10.3475,10.39423 -23.051,40.85879 -31.1445,74.68945 -2.8766,12.02392 -7.7062,3.94717 -8.0723,-13.5 -0.2275,-10.83719 -2.6767,-12.27614 -5.957,-3.5 -1.2335,3.29998 -3.3565,8.92498 -4.7188,12.5 -1.3623,3.57502 -2.9374,5.98213 -3.6836,9.20012 -2.7367,11.80253 -1.9816,13.10103 -2.7187,36.24519 -0.4536,14.24361 -1.6584,25.23379 -2.8086,25.61719 -3.1034,1.03446 -12.9316,-22.7521 -11.7806,-28.5878 1.0525,-5.33594 -3.8455,-4.62947 -5.9401,1.5253 -5.8051,17.05773 -5.3263,20.02725 4.1934,26.04297 13.2888,8.39758 13.3157,12.74796 0.1152,18.58594 -10.1479,4.48788 -10.7467,5.14364 -9.6582,10.58593 1.2472,6.23634 -2.4411,10.70126 -4.4707,5.41211 -1.7904,-4.66567 -6.8581,-3.79244 -13.1895,2.27344 -5.0339,4.82283 -5.9621,5.07692 -8.666,2.37305 -2.7039,-2.70388 -1.8967,-3.75255 7.5293,-9.8086 5.8056,-3.72997 7.4381,-5.63969 11.2207,-8.37304 1.9018,-1.37426 3.75,-2.83754 5.7679,-4.03483 2.1013,-1.24679 3.2661,-2.10773 6.5661,-3.25814 8.294,-2.8913 7.5401,-5.13362 -3.4609,-10.30469 -11.4496,-5.38197 -36.9935,-5.05286 -48.3711,0.62305 -3.7303,1.86092 -7.7686,3.38776 -8.9746,3.39453 -1.2061,0.008 -4.6684,1.30482 -7.6934,2.88281 -3.025,1.57799 -5.5,2.33172 -5.5,1.67578 0,-0.65593 2.475,-4.42344 5.5,-8.37304 3.025,-3.94965 7.5193,-10.14252 9.9883,-13.76172 2.469,-3.61917 5.3813,-7.67281 6.4707,-9.00782 10.5923,-12.98003 18.7133,-25.75885 30.7173,-40.3338 12.004,-14.57496 -82.7544,15.57202 -122.6763,42.71466 -9.77469,6.64574 -14,7.70279 -14,3.50196 0,-3.1036 4.67221,-7.32045 12.375,-11.16797 14.54324,-7.26429 29.54731,-46.10969 26.70703,-69.14258 -1.7664,-14.32399 -12.45198,-46.12206 -17.44141,-51.90039 -0.90233,-1.045 -1.64062,-3.52002 -1.64062,-5.5 0,-6.4916 -2.91064,-3.73969 -8.38086,7.92578 -31.31199,66.77386 -27.61117,60.89257 -55.19726,87.76758 -13.87223,13.51457 -25.59301,24.20195 -34.00745,30.83956 C 864,540.77013 857.92503,545.72146 850.5,550.79102 832.5802,563.0261 819.91112,563.21908 829.06445,551.11719 833.32648,545.48229 830.74784,526 825.74023,526 c -1.25083,0 -7.47514,18.42771 -8.56054,25.34375 -0.20221,1.28916 -3.59494,8.93914 -7.53907,17 -3.94409,8.06086 -7.97463,17.35623 -8.95507,20.65625 -2.72145,9.1595 -5.75945,5.283 -5.07422,-6.47266 1.46834,-25.19161 -8.53398,-67.93061 -12.17578,-52.02734 -0.56678,2.47499 -2.15692,7.64998 -3.53516,11.5 -3.73228,10.42586 -4.53626,12.86484 -4.72656,14.33398 -0.40808,3.15001 -3.28721,4.06157 -5.92188,1.875 -2.25543,-1.87184 -2.39092,-3.57182 -0.64648,-8.19336 3.25599,-8.62613 -0.84813,-46.18785 -6.47656,-59.27148 -3.89231,-9.04789 -5.44705,-14.05341 -5.97657,-19.24414 -0.62483,-6.12457 -4.19282,0.4352 -4.35156,8 -0.37001,17.64094 -6.26946,27.5721 -8.36914,14.08984 C 740.43621,474.35553 732.29892,453.03997 719.53516,431 694.85783,388.38806 678.16671,364.53438 649.25,330.55664 c -11.96292,-14.05668 -22.4949,-25.84231 -23.4043,-26.19141 -1.911,-0.73361 4.77338,16.53429 14.04883,36.28907 7.07947,15.07784 11.09147,27.72838 15.01367,47.3457 1.42953,7.15003 3.97754,18.85 5.66211,26 1.68458,7.15 5.41942,31.45002 8.30078,54 2.88133,22.55002 6.56403,48.77944 8.1836,58.28711 1.61953,9.50767 2.94531,20.36805 2.94531,24.13477 0,9.63111 6.34758,32.49279 12.76367,45.96874 2.98303,6.2654 5.76999,13.18287 6.19141,15.3711 1.28712,6.68353 4.74777,11.75533 11.12304,16.29492 4.85953,3.46031 5.61813,4.89945 3.75977,7.13867 -3.45963,4.16856 -6.23463,3.24403 -12.33789,-4.11328 -3.02502,-3.64656 -5.5,-7.20254 -5.5,-7.90039 0,-0.69781 -3.66776,-9.1234 -8.15039,-18.72461 -4.48263,-9.60117 -8.42955,-19.70701 -9.73108,-23.58202 C 676.817,577 672.80008,549.68765 666.89453,501 658.56619,432.33751 652.2696,399.02108 641.56836,367 c -2.2057,-6.6 -4.16078,-12.9 -4.34375,-14 -0.73546,-4.42138 -18.36836,-44.4897 -22.79649,-53.75576 -4.42812,-9.26605 -29.42722,-36.33808 -42.6664,-50.33018 -5.75121,-6.07828 -13.28519,-14.72263 -17.87548,-17.62568 -4.5903,-2.90304 -9.33535,-17.40618 -17.90577,-19.804 -4.07696,-1.14065 -9.1214,0.69526 -12.16992,3.63281 z"
       id="path36223"
       transform="scale(0.26458333)" />
  </g>
</svg>
